<?xml version="1.0" encoding="UTF-8" standalone="no"?>
<!-- Created with Inkscape (http://www.inkscape.org/) -->

<svg
   xmlns:dc="http://purl.org/dc/elements/1.1/"
   xmlns:cc="http://creativecommons.org/ns#"
   xmlns:rdf="http://www.w3.org/1999/02/22-rdf-syntax-ns#"
   xmlns:svg="http://www.w3.org/2000/svg"
   xmlns="http://www.w3.org/2000/svg"
   xmlns:sodipodi="http://sodipodi.sourceforge.net/DTD/sodipodi-0.dtd"
   xmlns:inkscape="http://www.inkscape.org/namespaces/inkscape"
   width="229.30388mm"
   height="199.08476mm"
   viewBox="0 0 229.30388 199.08476"
   version="1.1"
   id="svg8"
   inkscape:version="0.92.3 (2405546, 2018-03-11)"
   sodipodi:docname="cat_no_eyes.svg">
  <defs
     id="defs2" />
  <sodipodi:namedview
     id="base"
     pagecolor="#ffffff"
     bordercolor="#666666"
     borderopacity="1.0"
     inkscape:pageopacity="0.0"
     inkscape:pageshadow="2"
     inkscape:zoom="0.56461353"
     inkscape:cx="553.78052"
     inkscape:cy="301.59776"
     inkscape:document-units="mm"
     inkscape:current-layer="layer1"
     showgrid="false"
     inkscape:window-width="1600"
     inkscape:window-height="900"
     inkscape:window-x="0"
     inkscape:window-y="180"
     inkscape:window-maximized="1"
     gridtolerance="10"
     showguides="false"
     inkscape:snap-global="false"
     fit-margin-top="0"
     fit-margin-left="0"
     fit-margin-right="0"
     fit-margin-bottom="0" />
  <metadata
     id="metadata5">
    <rdf:RDF>
      <cc:Work
         rdf:about="">
        <dc:format>image/svg+xml</dc:format>
        <dc:type
           rdf:resource="http://purl.org/dc/dcmitype/StillImage" />
        <dc:title></dc:title>
      </cc:Work>
    </rdf:RDF>
  </metadata>
  <g
     inkscape:label="Layer 1"
     inkscape:groupmode="layer"
     id="layer1"
     transform="translate(-1235.881,646.2031)">
    <path
       style="fill:#000000;stroke-width:0.35277778"
       d="m 1300.9738,-452.2757 c -11.6786,1.66469 -21.0136,-5.98495 -31.749,-9.09916 -11.6633,-6.31919 -27.7488,-12.41047 -29.592,-27.47356 -3.6688,-18.80014 5.1205,-36.58554 7.0132,-54.98129 5.5254,-6.47845 9.0148,-15.07304 9.7139,-23.52623 0.8071,-10.18002 -6.5898,-17.18224 -10.6197,-25.48026 -5.3539,-8.80673 -3.6946,-18.78909 -8.1951,-27.98229 -6.4303,-7.80013 8.2074,-2.73229 3.1037,-9.25434 -1.8215,8.31655 -4.6408,-14.41769 3.6076,-9.76693 6.9706,-3.58006 -1.9751,15.66154 2.2783,20.99008 0.6745,10.11469 6.5864,18.70032 8.3465,28.4299 0.3755,3.43092 12.1671,11.44309 7.4481,10.32023 -2.6233,-2.34687 1.0813,12.4092 3.5518,2.20243 4.1592,1.42222 -1.9336,15.44037 -4.8226,20.27467 -6.9426,12.97737 -10.6445,27.78941 -12.6757,42.39569 -2.4544,9.05543 -9.0785,20.59738 -1.2141,28.74117 8.1167,9.05356 18.0931,16.89156 29.5713,21.31436 8.0784,7.1445 18.616,10.18234 29.1728,10.28349 13.0916,1.59537 26.3383,-1.54301 39.553,-0.54852 26.2959,-0.3976 53.9136,2.5343 78.872,-7.51947 10.9987,-3.36574 13.7193,-16.39148 25.2408,-18.15962 8.923,-3.3491 12.9648,-15.36228 10.6949,-23.22304 -3.3602,-8.80329 -3.0488,-18.6718 -8.3773,-26.85244 -5.3297,-12.25762 -11.6834,-24.17288 -16.3117,-36.66346 1.2781,-10.62092 7.5062,-19.87021 9.5267,-30.5159 6.2737,-9.40253 8.5267,-21.815 8.4376,-33.21161 1.6369,-3.6163 -1.3894,-13.0081 -2.604,-4.38217 -1.1245,10.93413 -2.687,22.1362 -6.5933,32.44753 0.1268,-6.49542 5.1797,-23.34342 2.7399,-24.131 -0.954,4.77504 -2.4038,9.33361 -1.5377,1.37188 3.273,-8.04506 0.5218,-19.77439 -8.8549,-11.74461 -6.2102,2.23077 -22.0962,11.07869 -20.8248,-0.27701 8.1258,-4.09011 18.6233,-2.67089 27.3344,-6.40461 4.253,-0.91461 9.8505,4.01937 11.401,1.90412 5.5739,10.28413 0.4552,22.22537 0.569,33.17271 -0.183,12.8339 -11.2795,21.88925 -13.1102,34.18648 0.6631,10.99771 4.5433,22.02035 10.1788,31.4816 6.8145,8.48974 10.0347,18.87628 11.8341,29.45592 2.1154,9.26263 1.4046,20.12134 -4.0134,28.24079 -6.9338,11.2073 -21.9061,12.93058 -28.9881,23.92351 -8.3057,6.00528 -19.4084,5.04465 -28.6507,9.17279 -27.4545,8.2111 -56.5019,7.01594 -84.4887,2.5701 -5.6375,-0.72181 -11.2888,-1.37588 -16.9664,-1.68193 z m -39.1582,-129.9956 c -0.8514,-1.38541 -0.8514,1.38541 0,0 z m 186.8604,-48.04392 c -0.8298,-0.19851 0.7612,1.95307 0,0 z m 0.4684,-2.41059 c 2.6334,-5.6116 -3.5441,-1.88099 0,0 z m -206.0261,-5.28438 c -0.4644,-1.33763 -0.7918,1.36615 0,0 z m 49.2125,156.64058 c -4.3538,-10.00424 11.2411,-10.31539 16.1349,-16.25633 3.4502,-2.3405 6.2586,-8.91737 10.0808,-2.21203 -2.14,11.40439 -17.481,11.48734 -24.439,17.71654 l -0.7293,0.69269 z m 127.6174,-9.78096 c -10.6803,-4.36732 -21.8861,-6.1865 -32.4406,-10.61675 6.3804,-7.15725 22.7044,0.54866 31.925,3.00582 4.5628,0.3125 6.9676,8.11697 0.5156,7.61093 z m 40.1563,-3.48453 c 0.2999,-1.32968 0.2821,1.69285 0,0 z m -158.3473,-19.99106 c -3.9379,-6.75193 -22.2658,-3.74567 -18.2734,-11.95903 9.4301,-0.009 18.595,4.98388 28.5951,6.51182 11.7861,5.11991 -5.5087,7.05099 -8.0717,3.29039 -1.4318,0.70498 0.654,4.37033 -2.25,2.15682 z m 2.5681,-1.6757 c 0.4644,-1.33764 0.7918,1.36615 0,0 z m 83.3997,-2.0544 c 0.6633,-10.93855 17.5354,-5.6651 23.9537,-12.48708 6.6371,3.1298 -8.076,11.54331 -13.4318,11.05584 -3.315,0.89344 -7.1339,3.33616 -10.5219,1.43124 z m -81.1473,-94.85047 c -7.5959,-7.15016 -15.4511,-13.35219 -25.9979,-16.10708 -8.9467,-3.5173 -17.3317,-11.62217 -25.597,-12.52617 -8.6113,-4.34223 0.2238,-5.75088 5.2013,-2.81758 9.2824,-1.18438 19.4521,7.37542 29.5695,9.73558 7.4293,1.41682 13.648,9.3542 17.0392,12.37147 6.4825,1.98903 12.1907,-2.8191 15.297,2.85117 -5.6806,-1.39013 -9.7012,3.08803 -12.9179,3.22828 -2.6169,0.42904 0.1838,3.65782 -2.5942,3.26433 z m 8.1545,-5.20347 c -0.6484,-1.3381 -1.0509,0.78263 0,0 z m -5.9972,-3.01943 c -0.8514,-1.38538 -0.8513,1.38538 0,0 z m 1.4111,0 c -0.8513,-1.38538 -0.8513,1.38538 0,0 z m -40.9222,-15.16945 c -0.4644,-1.33762 -0.7918,1.36615 0,0 z m 113.0518,20.06578 c -7.9763,-4.69858 -17.8818,-4.71663 -26.7967,-6.88751 -10.3238,-0.76866 -21.0357,-0.60041 -31.0619,2.05767 6.7918,-6.79981 18.9579,-7.24403 28.3851,-6.72444 12.1869,3.16455 24.5958,5.89619 36.9739,4.91357 8.7794,0.46282 17.5569,-15.65372 23.709,-6.19344 -6.9045,8.34342 -21.0898,9.81572 -28.8482,12.41366 -0.4799,0.5292 -1.7364,1.22999 -2.3612,0.42049 z m 7.9788,-7.57168 c 0.2999,-1.32967 0.2821,1.69286 0,0 z m 57.15,-4.93889 c 0.2999,-1.32967 0.2821,1.69286 0,0 z m -201.944,-14.78652 c 0.9358,-6.06226 6.3815,2.79116 0,0 z m -4.1061,-0.82388 c 0.8562,-1.99292 1.9294,1.61727 0,0 z"
       id="path1043"
       inkscape:connector-curvature="0"
       sodipodi:nodetypes="ccccccccccccccccccccccccccccccccccccccccccccccccccccccccccccccccccccccccccccccccccccccccccccccccccccccccccc" />
    <path
       style="opacity:1;fill:#f9f9f9;fill-opacity:1;stroke:#ffffff;stroke-width:0.50207728;stroke-linecap:round;stroke-miterlimit:4;stroke-dasharray:none;stroke-opacity:1"
       d="m 1373.1193,-563.5476 c -0.7428,0.0291 -1.8005,2.08976 0.05,3.61537 0.8192,-2.70402 0.4585,-3.63524 -0.05,-3.61537 z"
       id="path1278"
       inkscape:connector-curvature="0" />
  </g>
  <g
     inkscape:groupmode="layer"
     id="layer2"
     inkscape:label="Layer 2"
     transform="translate(-1235.881,646.2031)" />
</svg>
